<svg xmlns="http://www.w3.org/2000/svg" width="512" height="512" viewBox="0 0 512 512"><path fill="#FCC908" d="M512 472c0 22.094-17.906 40-40 40H40c-22.094 0-40-17.906-40-40V40C0 17.906 17.906 0 40 0h432c22.094 0 40 17.906 40 40v432z"/><g fill="#2373CC"><path d="M273.856 220.467c11.174.014 22.352-.18 33.521.065 12.639.277 19.105 6.601 19.252 19.351.262 22.73.293 45.469-.016 68.198-.169 12.366-5.506 17.758-17.729 17.954-20.416.326-40.846.348-61.261-.011-12.092-.213-17.076-5.857-17.426-18.218-.12-4.235-.03-8.476-.027-12.715.018-26.074 8.376-34.301 34.884-34.329 10.403-.011 20.82-.323 31.206.104 7.221.296 9.41-2.772 9.29-9.566-.119-6.78-1.626-10.219-9.621-10.115h-65.777V220.58c10.781.265 32.915-.126 43.704-.113zm4.559 84.917c6.167 0 12.345-.224 18.499.056 7.887.359 8.789-4.638 8.486-10.55-.297-5.806 1.869-13.348-7.995-13.381-11.558-.039-23.131-.204-34.671.302-9.672.424-11.281 7.11-11.258 15.422.026 9.2 6.163 8.104 11.906 8.162 5.011.05 10.022.01 15.033-.011zM136.03 305.947v20.433c-19.282.009-55.29-.09-74.571-.182-16.677-.079-21.531-4.906-21.552-21.182-.029-21.981-.061-43.962.014-65.943.044-12.944 5.171-18.41 17.985-18.55 20.05-.219 40.107-.228 60.157.026 11.86.15 16.751 5.155 17.177 16.966a312.71 312.71 0 0 1-.001 21.977c-.562 16.393-9.302 25.476-25.975 26.253-12.315.574-24.674.295-37.012.225-6.485-.037-12.305-.446-12.265 9.124.037 8.81 3.731 11.225 11.956 11.006 16.955-.455 64.087-.153 64.087-.153zM85.04 265.2v-.214c6.552 0 13.168.577 19.64-.139 9.137-1.011 9.975-7.981 9.909-15.485-.07-7.94-5.333-8.193-11.052-8.186-10.025.014-20.068.37-30.069-.118-8.962-.438-13.52 2.041-13.53 12.145-.009 10.138 4.622 12.832 13.539 12.053 3.827-.334 7.707-.056 11.563-.056zM143.228 185.689h20.698c0 16.938-.321 33.707.171 50.451l-.215 17.054 11.388.001s19.666-30.345 21.119-32.618h24.369s-14.003 23.229-21.168 33.457c-3.916 5.589-3.736 9.962-.334 15.709 10.524 17.778 30.895 56.635 30.895 56.635H206.7c-6.343-11.017-30.93-53.033-30.93-53.033h-11.888l.124 53.033-20.816.518c.084-43.896.038-95.852.038-141.207zM422.833 185.103h21.932v35.475h27.36l.001 20.605h-27.37c0 28.807.29 58.042.29 85.196h-22.213v-85.196h-28.212v-20.605h28.212v-35.475zM333.933 326.38c0-30.074-.078-60.965-.078-90.54 0-8.936 6.711-15.006 16.306-15.239l38.461-.022s-.03 11.855 0 20.605l-9.932.154c-23.444-.041-22.966.356-22.965 24.417l-.07 60.625h-21.722z"/></g></svg>